<?xml version="1.0" encoding="UTF-8"?>
<svg id="Layer_1" data-name="Layer 1" xmlns="http://www.w3.org/2000/svg" viewBox="0 0 2388 560">
  <defs>
    <style>
      .cls-1 {
        fill: #f19dc0;
      }

      .cls-2 {
        fill: #fefaf8;
      }

      .cls-3 {
        fill: #020102;
      }
    </style>
  </defs>
  <path class="cls-1" d="M2,0h2386v560l-1997.94-.15-388.01-1.12L2,0ZM25.06,19.6v429.57h2339.98V19.6H25.06ZM1582.43,548.02c11.4-.32,20.91-5.86,24.76-14.97,3.99-9.46,3.26-22.57-5.42-28.63-13.17-9.2-34.69-6.82-33.2-16.93.61-4.16,3.54-6.75,8.63-6.76,2.77,0,7.38.95,9.75,2.66,1.84,1.33,2.68,4.94,3.58,8.49l16.54-.68c.89-15.29-10.46-25.64-25.08-26.41-9.79-.52-18.46,1.38-25.7,8.93-4.01,4.18-4.65,11.17-4.79,17.27-.71,29.37,43.79,19.72,40.55,34.48-1.08,4.9-12.36,7.44-19.49,3.79-2.88-1.47-4.63-4.89-5.59-9.26l-17.49-.06c.57,4.43,1.14,9.91,3.2,13.89,5.48,10.61,17.64,14.51,29.77,14.17ZM977.88,545.92l-.08-16.78-33.45-.09,32.2-45.65c3.15-4.46.91-12.82.12-17.28l-52.48.52-.1,15.88,30.95.38-31.71,45.83.13,17.15,54.41.04ZM1033.58,512.31c.49-5.96.56-11.14-.56-17.16l-31.36.47-.46-12.65,36.26-.43-.55-16.41-52.73.09.12,79.62,53.74.13.09-16.91-37.06.15.1-16.89h32.41ZM1086.14,529.61l4.11,16.44,18.78-.46-24.88-79.45-18.63.13-24.39,79.31,19.13.35,3.38-16.19,22.49-.11ZM1163.64,529.11l-33.47-.18-.16-62.84-16.95.03.07,79.74,50.72.12-.22-16.87ZM1185.88,466.09l-17.01.02.1,79.85,17.01-.02-.1-79.85ZM1235.17,529.86l4.32,16.02,18.68-.35-24.37-79.34-18.51.03-25.04,79.36,18.66.51,4.26-16.24,22.01.02ZM1337.43,504.47l4.06-11.54c1.49-7.21-.45-14.73-5.04-19.71s-10.88-6.76-17.89-6.8l-32.63-.21v79.6s36.77-.25,36.77-.25c9.4-.06,18.08-7.5,20.53-14.9,3.1-9.39,1.24-18.62-5.8-26.19ZM1392.37,529.66l4.21,16.24,18.71-.23-24.72-79.36-18.73-.21-24.36,79.54,18.68.37,3.73-16.24,22.47-.12ZM1477.45,544.91l-.1-78.11c-5.74-.44-10.8-.39-15.93.26l-.4,46.39-24.16-47.34-16.85.19-.07,79.54,16.08.08.14-47.77,16.08,30.72,7.24,16.25c5.34.58,11.72.56,17.98-.21ZM1551.1,545.12l-29.79-45.33,27.85-33.14c-8.32-.92-15.34-.56-22.82.36l-21.87,27.98-.48-28.98-17.62.29-.24,79.45,18.02.25-.13-22.09c-.02-4.1,1.04-7.66,4.89-9.75l18.91,31.74,23.29-.78ZM898.96,529.3l4.55,16.57,19.19-.29-23.62-78.59-19.51-.18-24.52,78.7,18.6.49,4.36-16.36,20.96-.34Z"/>
  <polygon class="cls-2" points="2 0 2.05 558.73 390.06 559.85 0 560 0 0 2 0"/>
  <path class="cls-2" d="M25.06,19.6h2339.98v429.57H25.06V19.6ZM2330.46,50.64l-2271.44.33.05,369.26,2271.44-.33-.05-369.26Z"/>
  <path class="cls-3" d="M1337.43,504.47c7.04,7.57,8.9,16.8,5.8,26.19-2.44,7.4-11.12,14.83-20.53,14.9l-36.76.25v-79.6s32.62.21,32.62.21c7.01.04,13.5,2.05,17.89,6.8s6.53,12.5,5.04,19.71l-4.06,11.54ZM1319.44,496.8c4.63-.02,6.7-5.05,6.48-8.27-.25-3.71-3.79-6.31-8.01-6.27l-15.64.12.08,14.5,17.09-.08ZM1318,529.96c5.51.11,9.19-2.6,9.8-7.7.46-3.81-1.42-9.38-6.56-9.49l-18.94-.39-.05,17.27,15.75.31Z"/>
  <path class="cls-3" d="M1477.45,544.91c-6.26.77-12.64.79-17.98.21l-7.24-16.25-16.08-30.72-.14,47.77-16.08-.08.07-79.54,16.85-.19,24.16,47.34.4-46.39c5.13-.65,10.19-.7,15.93-.26l.1,78.11Z"/>
  <path class="cls-3" d="M1551.1,545.12l-23.29.78-18.91-31.74c-3.85,2.09-4.91,5.65-4.89,9.75l.13,22.09-18.02-.25.24-79.45,17.62-.29.48,28.98,21.87-27.98c7.48-.93,14.51-1.28,22.82-.36l-27.85,33.14,29.79,45.33Z"/>
  <path class="cls-3" d="M1582.43,548.02c-12.12.34-24.29-3.56-29.77-14.17-2.05-3.98-2.63-9.45-3.2-13.89l17.49.06c.96,4.36,2.72,7.79,5.59,9.26,7.12,3.65,18.41,1.11,19.49-3.79,3.25-14.76-41.25-5.11-40.55-34.48.15-6.1.79-13.1,4.79-17.27,7.24-7.55,15.9-9.45,25.7-8.93,14.62.77,25.97,11.12,25.08,26.41l-16.54.68c-.91-3.55-1.75-7.16-3.58-8.49-2.37-1.71-6.98-2.67-9.75-2.66-5.09,0-8.02,2.6-8.63,6.76-1.49,10.1,20.03,7.73,33.2,16.93,8.68,6.06,9.41,19.17,5.42,28.63-3.85,9.1-13.36,14.65-24.76,14.97Z"/>
  <path class="cls-3" d="M1033.58,512.31h-32.41s-.1,16.91-.1,16.91l37.06-.15-.09,16.91-53.74-.13-.12-79.62,52.73-.09.55,16.41-36.26.43.46,12.65,31.36-.47c1.12,6.02,1.05,11.19.56,17.16Z"/>
  <path class="cls-3" d="M1235.17,529.86l-22.01-.02-4.26,16.24-18.66-.51,25.04-79.36,18.51-.03,24.37,79.34-18.68.35-4.32-16.02ZM1230.53,513.71l-6.35-21.79-6.07,22.04,12.42-.25Z"/>
  <path class="cls-3" d="M1086.14,529.61l-22.49.11-3.38,16.19-19.13-.35,24.39-79.31,18.63-.13,24.88,79.45-18.78.46-4.11-16.44ZM1081.58,513.61l-6.69-22.22-6.11,22.41,12.8-.19Z"/>
  <path class="cls-3" d="M1392.37,529.66l-22.47.12-3.73,16.24-18.68-.37,24.36-79.54,18.73.21,24.72,79.36-18.71.23-4.21-16.24ZM1387.63,513.52l-6.4-22.29-6.17,22.17,12.57.12Z"/>
  <path class="cls-3" d="M898.96,529.3l-20.96.34-4.36,16.36-18.6-.49,24.52-78.7,19.51.18,23.62,78.59-19.19.29-4.55-16.57ZM895.41,514.04l-6.78-22.94-6.1,23.03,12.88-.09Z"/>
  <path class="cls-3" d="M977.88,545.92l-54.41-.04-.13-17.15,31.71-45.83-30.95-.38.1-15.88,52.48-.52c.79,4.46,3.02,12.82-.12,17.28l-32.2,45.65,33.45.09.08,16.78Z"/>
  <polygon class="cls-3" points="1163.64 529.11 1163.86 545.98 1113.13 545.86 1113.07 466.12 1130.01 466.09 1130.17 528.93 1163.64 529.11"/>
  <rect class="cls-3" x="1168.92" y="466.11" width="17.01" height="79.85" transform="translate(-.66 1.54)"/>
  <path class="cls-1" d="M2330.46,50.64l.05,369.26-2271.44.33-.05-369.26,2271.44-.33ZM98.86,365.97h358.61c19.74-2.05,36.9-12.54,43.58-31.05l.08-85.96c-1.38-13.22-9.03-24.28-21.04-30.14-8.83-4.3-18.61-8.66-29.21-8.67l-246.54-.23c-3.32,0-8.53-3.84-8.56-6.68l-.29-25.48c-.03-2.86,2.52-8.87,6.72-8.87l298.84.02.08-57.14c-6.91-.82-12.65-.88-19.63-.33H157.21c-14.53-.01-27.77,1.3-39.8,9.04-10.18,6.54-18.35,16.82-18.34,29.52l.06,82.68c4.05,14.65,15.3,25.54,29.84,30.23,5.82,2.16,11.49,4.12,18.24,4.13l250.29.37c2.77,0,6.22,5.75,7.21,7.29l.06,26.43c-1.35,4.92-5.34,7.9-10.96,7.56l-294.67-.06-.26,57.36ZM903.23,366.56l-.1-58.19-261.68-.02-.04-197.58-99.7-.03,1.07,11.6-.18,244.65,221.99-.13,138.65-.3ZM1264.12,332.42l23.85,34.52,105.3-.6-52.14-73.61-130.05-181.82h-99.08s-56.21,77.81-56.21,77.81l-122.43,169.3c-2.16,2.99-3.49,5.76-4.57,8.94l104.89-.08,24.95-34.46h205.5ZM1561.03,255.89l183.33-144.71-128.83-.27-30.28,24.49-71.81,56.86-103.18-81.36-120.17.04c-2.42,3.69-.97,8.1,3.32,9.72l120.96,95.87,50,39.11.08,110.88h96.6s-.03-110.63-.03-110.63ZM2277.2,308.47l-181.3-.05c-7.98,0-15.07.61-23.33-1.73l123.46-71.56,101.85-59.19.1-64.95h-359.18s-.08,57.91-.08,57.91l227.82.4-227.54,133.35-.18,63.56,359.01-.07.2-57.29-20.84-.38ZM1897.84,211.07l-194.48.02v57.81s194.48-.02,194.48-.02v-57.81Z"/>
  <path class="cls-1" d="M1318,529.96l-15.75-.31.05-17.27,18.94.39c5.14.11,7.02,5.68,6.56,9.49-.61,5.1-4.29,7.81-9.8,7.7Z"/>
  <path class="cls-1" d="M1319.44,496.8l-17.09.08-.08-14.5,15.64-.12c4.22-.03,7.76,2.57,8.01,6.27.22,3.21-1.85,8.24-6.48,8.27Z"/>
  <polygon class="cls-1" points="1230.53 513.71 1218.11 513.96 1224.18 491.92 1230.53 513.71"/>
  <polygon class="cls-1" points="1081.58 513.61 1068.79 513.8 1074.89 491.39 1081.58 513.61"/>
  <polygon class="cls-1" points="1387.63 513.52 1375.06 513.41 1381.24 491.24 1387.63 513.52"/>
  <polygon class="cls-1" points="895.41 514.04 882.53 514.13 888.62 491.1 895.41 514.04"/>
  <path class="cls-3" d="M98.86,365.97l.26-57.36,294.67.06c5.63.34,9.61-2.64,10.96-7.56l-.06-26.43c-.99-1.54-4.44-7.28-7.21-7.29l-250.29-.37c-6.75,0-12.42-1.98-18.24-4.13-14.54-4.69-25.79-15.58-29.84-30.23l-.06-82.68c0-12.7,8.16-22.98,18.34-29.52,12.03-7.74,25.27-9.05,39.8-9.05h324.3c6.98-.54,12.73-.49,19.63.34l-.08,57.14-298.84-.02c-4.21,0-6.76,6.01-6.72,8.87l.29,25.48c.03,2.84,5.24,6.67,8.56,6.68l246.54.23c10.59.01,20.38,4.37,29.21,8.67,12.02,5.86,19.66,16.92,21.04,30.14l-.08,85.96c-6.68,18.51-23.83,29-43.58,31.05H98.86Z"/>
  <path class="cls-3" d="M2277.2,308.47l20.84.38-.2,57.29-359.01.07.18-63.56,227.54-133.35-227.82-.4.08-57.91h359.18s-.1,64.95-.1,64.95l-101.85,59.19-123.46,71.56c8.26,2.33,15.34,1.73,23.33,1.73l181.3.05Z"/>
  <path class="cls-3" d="M1264.12,332.42h-205.5s-24.95,34.46-24.95,34.46l-104.89.08c1.07-3.19,2.41-5.96,4.57-8.94l122.43-169.3,56.21-77.8h99.08s130.05,181.81,130.05,181.81l52.14,73.61-105.3.6-23.85-34.52ZM1221.26,271.82l-60.15-81.66-59.81,81.89,119.96-.22Z"/>
  <path class="cls-3" d="M1561.03,255.89l.03,110.61h-96.6s-.08-110.86-.08-110.86l-50-39.11-120.96-95.87c-4.3-1.63-5.74-6.04-3.32-9.72l120.17-.04,103.18,81.36,71.81-56.86,30.28-24.49,128.83.27-183.33,144.71Z"/>
  <polygon class="cls-3" points="903.23 366.56 764.59 366.86 542.6 366.99 542.78 122.34 541.71 110.74 641.41 110.77 641.44 308.35 903.13 308.37 903.23 366.56"/>
  <rect class="cls-3" x="1703.36" y="211.08" width="194.48" height="57.81"/>
  <polygon class="cls-1" points="1221.26 271.82 1101.3 272.05 1161.11 190.16 1221.26 271.82"/>
</svg>